<svg version="1.1" xmlns="http://www.w3.org/2000/svg" viewBox="0 0 433.37828785174406 578.5957131355906" width="433.37828785174406" height="578.5957131355906">
  <!-- svg-source:excalidraw -->
  
  <defs>
    <style class="style-fonts">
      @font-face {
        font-family: "Virgil";
        src: url("https://excalidraw.com/Virgil.woff2");
      }
      @font-face {
        font-family: "Cascadia";
        src: url("https://excalidraw.com/Cascadia.woff2");
      }
    </style>
  </defs>
  <rect x="0" y="0" width="433.37828785174406" height="578.5957131355906" fill="#ffffff"></rect><g stroke-linecap="round" transform="translate(180.381623466571 10) rotate(0 31.5 31.5)"><path d="M-1.03 0.31 C17.61 1.32, 33.1 1.29, 62.36 -1.35 M-0.76 -0.73 C16.55 0.3, 33.74 0.46, 62.71 0.07 M64.03 0.56 C64.48 17.44, 64.39 29.7, 62.9 61.88 M63.42 -0.27 C63.19 18.21, 64.1 36.22, 63.75 62.6 M63.35 64.17 C40.61 64.12, 14.3 63.33, -0.37 63.75 M63.37 63.09 C38.14 62.13, 12.9 63.31, 0.74 63.93 M1.4 62.08 C-0.03 44.95, -0.68 31.62, 1.57 1.87 M-0.49 62.42 C0.16 46.42, -0.56 31.47, 0.69 0.92" stroke="#000000" stroke-width="1" fill="none"></path></g><g transform="translate(203.381623466571 29) rotate(0 8.5 12.5)"><text x="8.5" y="18" font-family="Virgil, Segoe UI Emoji" font-size="20px" fill="#000000" text-anchor="middle" style="white-space: pre;" direction="ltr">W</text></g><g stroke-linecap="round" transform="translate(179.8972588479694 92.10760019192071) rotate(0 31.5 31.5)"><path d="M-0.74 0.29 C18.76 -1.58, 40.59 0.14, 64.01 -1.72 M0.66 0.71 C24.29 0.11, 49.11 0.37, 62.19 0.34 M62.92 1.73 C65.57 14.99, 65.21 35.7, 63.09 64.35 M62.98 0.05 C64.32 18.96, 62.63 36.43, 62.71 63.49 M64.65 61.2 C47.75 63.51, 35.81 63.71, -1.81 64.18 M62.28 62.73 C46.23 63.61, 29.46 62.05, -0.88 62.9 M-0.31 63.32 C1.17 49.21, -0.1 34.93, -1.88 0.1 M0.36 62.18 C-0.16 46.42, -0.36 29.26, -0.69 0.31" stroke="#000000" stroke-width="1" fill="none"></path></g><g transform="translate(204.3972588479694 111.1076001919206) rotate(0 7 12.5)"><text x="7" y="18" font-family="Virgil, Segoe UI Emoji" font-size="20px" fill="#000000" text-anchor="middle" style="white-space: pre;" direction="ltr">S</text></g><g stroke-linecap="round" transform="translate(259.0329640485272 90.45893966690869) rotate(0 31.5 31.5)"><path d="M-2 0.43 C21.15 -1.84, 41.31 0.3, 64.69 0.02 M-0.58 0.03 C22.5 -0.65, 46.29 0, 63.72 -0.7 M63.96 1.87 C63.38 21.33, 61.48 41.92, 62.64 61.39 M62.71 0.47 C62.63 17.84, 63.9 37.7, 62.74 62.86 M62.1 61.11 C50 63.66, 37.11 62.38, 1.87 63.4 M63.81 62.86 C42.04 62.17, 20.36 63.6, -0.94 63.23 M0.65 62.65 C-0.11 44.75, 0.47 25.56, -0.72 -1.38 M-0.41 63.75 C0.26 47.74, -1.05 33.32, 0.36 -0.23" stroke="#000000" stroke-width="1" fill="none"></path></g><g transform="translate(281.5329640485272 109.45893966690858) rotate(0 9 12.5)"><text x="9" y="18" font-family="Virgil, Segoe UI Emoji" font-size="20px" fill="#000000" text-anchor="middle" style="white-space: pre;" direction="ltr">D</text></g><g stroke-linecap="round" transform="translate(100.76155364741112 92.93193045442626) rotate(0 31.5 31.5)"><path d="M-0.9 -1.89 C12.37 0.21, 24.85 -1.08, 64.87 0.4 M0.81 -0.14 C21.85 -0.34, 42.98 1.08, 62.06 0.23 M63.65 -0.35 C63.43 20.19, 64.01 39.43, 62.28 61.62 M62.59 0.75 C64.15 14.68, 62.84 30.21, 63.36 62.77 M64.66 62.95 C42.88 63.18, 21.2 60.52, -1.91 64.09 M63.19 62.08 C48.5 63.6, 34.42 62.29, 0.82 62.01 M1.45 62.92 C0.9 45.89, 0.36 31.45, -0.72 -0.2 M0.21 62.93 C0.97 38.9, 0.61 13.93, -0.68 -0.62" stroke="#000000" stroke-width="1" fill="none"></path></g><g transform="translate(124.76155364741112 111.93193045442615) rotate(0 7.5 12.5)"><text x="7.5" y="18" font-family="Virgil, Segoe UI Emoji" font-size="20px" fill="#000000" text-anchor="middle" style="white-space: pre;" direction="ltr">A</text></g><g transform="translate(165.6469292788961 171.0742231735686) rotate(0 47 12.5)"><text x="0" y="18" font-family="Virgil, Segoe UI Emoji" font-size="20px" fill="#000000" text-anchor="start" style="white-space: pre;" direction="ltr">Movement</text></g><g stroke-linecap="round" transform="translate(177.00075133838345 295.7257643376638) rotate(0 31.5 31.5)"><path d="M0.96 -1.21 C25.95 -0.8, 47.98 -1.86, 62.39 -1.63 M-0.22 -0.93 C20.15 1.04, 39.16 1.45, 62.6 -0.93 M64.04 1.05 C63.84 22.09, 61.41 42.68, 63.04 61.42 M62.7 -0.01 C62.3 14.48, 63.44 29.17, 63.15 62.12 M61.01 64.96 C46.69 64.3, 28.56 63.56, -1.37 64.48 M63.44 63.19 C38.5 61.7, 15.6 62.22, 0.3 63.28 M1.31 61.3 C-0.2 44.29, 1.19 28.47, -1.71 -0.58 M-0.45 62.82 C-0.17 39.73, -1.23 17.44, 0.88 -0.98" stroke="#000000" stroke-width="1" fill="none"></path></g><g transform="translate(200.50075133838345 314.7257643376639) rotate(0 8 12.5)"><text x="8" y="18" font-family="Virgil, Segoe UI Emoji" font-size="20px" fill="#000000" text-anchor="middle" style="white-space: pre;" direction="ltr">Q</text></g><g stroke-linecap="round" transform="translate(177.0007513383839 214.94139861209408) rotate(0 31.5 31.5)"><path d="M-0.46 -1.71 C17.35 0.83, 37 -1.2, 62.11 -0.36 M-0.37 0.88 C19.12 1.06, 40.01 1.06, 62.6 -0.6 M61.21 0.44 C63.93 20.32, 64.52 43.83, 63.59 62.83 M62.18 0.68 C63.96 21.7, 63.24 41.73, 62.11 63.34 M62.57 63.31 C36.61 64.37, 13.37 61.4, -0.16 63.37 M63.11 63.75 C40.07 62.53, 17.4 63.11, -0.63 62.03 M-1.02 61.41 C-1.66 44.28, -1.93 24.89, -0.22 1.43 M-0.83 63.6 C-0.43 49.39, 0.62 37.35, -0.81 -0.73" stroke="#000000" stroke-width="1" fill="none"></path></g><g transform="translate(201.0007513383839 233.94139861209408) rotate(0 7.5 12.5)"><text x="7.5" y="18" font-family="Virgil, Segoe UI Emoji" font-size="20px" fill="#000000" text-anchor="middle" style="white-space: pre;" direction="ltr">E</text></g><g transform="translate(256.3119065637211 232.90758216831216) rotate(0 7.5 12.5)"><text x="0" y="18" font-family="Virgil, Segoe UI Emoji" font-size="20px" fill="#000000" text-anchor="start" style="white-space: pre;" direction="ltr">+</text></g><g transform="translate(259.1970624824919 319.05009460017004) rotate(0 5 12.5)"><text x="0" y="18" font-family="Virgil, Segoe UI Emoji" font-size="20px" fill="#000000" text-anchor="start" style="white-space: pre;" direction="ltr">-</text></g><g transform="translate(139.66917441914825 372.6315616630475) rotate(0 68 12.5)"><text x="0" y="18" font-family="Virgil, Segoe UI Emoji" font-size="20px" fill="#000000" text-anchor="start" style="white-space: pre;" direction="ltr">Scale controll</text></g><g stroke-linecap="round" transform="translate(30.020641406613322 294.36762464981143) rotate(0 31.5 31.5)"><path d="M-0.76 -1.17 C16.93 -1.23, 30.87 2.16, 61.57 0.14 M0.52 0.13 C18.53 0.84, 36.87 0.45, 63.8 0.56 M63.22 1.4 C61.53 21.67, 62.64 43.11, 62.44 62.85 M62.71 -0.73 C61.99 20.56, 62.77 41.46, 62.24 62.36 M62.44 63.44 C42.92 64.33, 22.54 63.66, 1.48 63.54 M63.07 63.23 C38.81 63.04, 14.39 62.77, -0.31 63.75 M1.22 62.87 C0.66 43.17, 0.34 18.51, -1.3 1.19 M0.72 63.6 C1.02 48.66, -0.6 35.8, 0.55 0.66" stroke="#000000" stroke-width="1" fill="none"></path></g><g transform="translate(54.52064140661332 313.36762464981143) rotate(0 7 12.5)"><text x="7" y="18" font-family="Virgil, Segoe UI Emoji" font-size="20px" fill="#000000" text-anchor="middle" style="white-space: pre;" direction="ltr">X</text></g><g stroke-linecap="round" transform="translate(30.020641406613322 213.5832589242416) rotate(0 31.5 31.5)"><path d="M1.98 -1.64 C15.79 2.12, 28.23 0.51, 62.75 0.88 M0.44 0.36 C14.74 -0.11, 28.94 0.47, 63.27 0.48 M61.23 1.08 C62.4 15.19, 62.51 26.37, 63.5 62.42 M62.17 0.07 C62.77 22.59, 62.06 43.58, 63.35 63.06 M64.02 64.69 C49.46 64.16, 33.95 63.68, 1.76 62.57 M63.24 63.03 C44.17 62.89, 24.51 63.89, 0.46 63.66 M1.07 64.98 C0.37 45.84, -1.69 31.6, -1.6 -0.3 M0.93 62.51 C-1.14 48.14, 0.1 32.95, -0.07 -0.86" stroke="#000000" stroke-width="1" fill="none"></path></g><g transform="translate(52.52064140661332 232.5832589242416) rotate(0 9 12.5)"><text x="9" y="18" font-family="Virgil, Segoe UI Emoji" font-size="20px" fill="#000000" text-anchor="middle" style="white-space: pre;" direction="ltr">Z</text></g><g transform="translate(109.33179663195097 231.54944248045967) rotate(0 7.5 12.5)"><text x="0" y="18" font-family="Virgil, Segoe UI Emoji" font-size="20px" fill="#000000" text-anchor="start" style="white-space: pre;" direction="ltr">+</text></g><g transform="translate(112.21695255072154 317.69195491231744) rotate(0 5 12.5)"><text x="0" y="18" font-family="Virgil, Segoe UI Emoji" font-size="20px" fill="#000000" text-anchor="start" style="white-space: pre;" direction="ltr">-</text></g><g transform="translate(10 372.0977522377011) rotate(0 52 12.5)"><text x="0" y="18" font-family="Virgil, Segoe UI Emoji" font-size="20px" fill="#000000" text-anchor="start" style="white-space: pre;" direction="ltr">Iterations</text></g><g stroke-linecap="round" transform="translate(23.23414940983571 421.5756520463592) rotate(0 31.5 31.5)"><path d="M1.1 -1.7 C17.65 0.87, 38.38 -1.07, 62.93 0.53 M0.26 -0.26 C20.63 -0.71, 41.29 -0.3, 62.58 -0.9 M63.68 -0.96 C62.8 19.54, 62.15 40.41, 62.02 63.59 M62.06 -0.55 C63.12 14.92, 62.86 30.02, 63.69 62.06 M62.35 61 C46.46 64.44, 28.91 61.87, 1.16 63.86 M62.38 62.77 C43.22 62.68, 25.42 64.24, -0.4 63.06 M1.76 63.68 C-0.78 48.08, 0.25 29.19, 1.08 0 M-0.29 62.35 C0 46.31, -0.58 31.22, -0.37 0.3" stroke="#000000" stroke-width="1" fill="none"></path></g><g transform="translate(47.23414940983571 440.5756520463592) rotate(0 7.5 12.5)"><text x="7.5" y="18" font-family="Virgil, Segoe UI Emoji" font-size="20px" fill="#000000" text-anchor="middle" style="white-space: pre;" direction="ltr">C</text></g><g transform="translate(98.42365332264421 426.7647165337371) rotate(0 92.5 25)"><text x="0" y="18" font-family="Virgil, Segoe UI Emoji" font-size="20px" fill="#000000" text-anchor="start" style="white-space: pre;" direction="ltr">Capture</text><text x="0" y="43" font-family="Virgil, Segoe UI Emoji" font-size="20px" fill="#000000" text-anchor="start" style="white-space: pre;" direction="ltr">Quality screenshot</text></g><g stroke-linecap="round" transform="translate(329.0671326264064 292.77323047353707) rotate(0 31.5 31.5)"><path d="M-0.29 1.38 C13.91 -0.71, 31.02 0.8, 62.28 -0.75 M0.94 -0.35 C14.71 -1.45, 30.02 -0.93, 62.21 0.56 M61.17 0.13 C61.57 14.75, 63.31 27.72, 61.6 62.33 M62.94 -0.22 C61.99 19.19, 62.68 36.68, 62.09 63.13 M63.85 62.27 C45.02 63.67, 28.05 64.08, -1.26 64.39 M63.31 63.98 C43.11 61.92, 23.88 62.15, -0.33 63.01 M-0.6 62.52 C-0.08 46.06, -0.63 27, -0.07 0.83 M-0.61 62.89 C0.09 43.91, -0.02 24.22, -0.12 -0.34" stroke="#000000" stroke-width="1" fill="none"></path></g><g transform="translate(354.0671326264064 311.77323047353707) rotate(0 6.5 12.5)"><text x="6.5" y="18" font-family="Virgil, Segoe UI Emoji" font-size="20px" fill="#000000" text-anchor="middle" style="white-space: pre;" direction="ltr">F</text></g><g stroke-linecap="round" transform="translate(329.06713262640733 211.98886474796723) rotate(0 31.5 31.5)"><path d="M-1.35 -0.95 C17 0.12, 32.24 -1.18, 61.63 0.05 M0.14 -1 C24.3 -0.26, 46.05 0.78, 62.2 0.81 M61.06 0.89 C62.22 20.14, 61.02 39.62, 62.88 62.8 M62.05 0.66 C62.71 20.92, 62.05 42.74, 62.9 62.26 M63.31 63.64 C45.45 63.82, 23.39 64.15, 0.32 64.08 M63.02 62.17 C47.29 63.02, 29.86 63.63, -0.24 62.18 M-0.6 63.43 C-0.96 39.19, 0.12 18.75, 0.02 -0.83 M-0.17 62.87 C0.11 39.44, 0.26 17.24, 0.39 -0.54" stroke="#000000" stroke-width="1" fill="none"></path></g><g transform="translate(352.56713262640733 230.98886474796723) rotate(0 8 12.5)"><text x="8" y="18" font-family="Virgil, Segoe UI Emoji" font-size="20px" fill="#000000" text-anchor="middle" style="white-space: pre;" direction="ltr">R</text></g><g transform="translate(408.37828785174406 229.95504830418554) rotate(0 7.5 12.5)"><text x="0" y="18" font-family="Virgil, Segoe UI Emoji" font-size="20px" fill="#000000" text-anchor="start" style="white-space: pre;" direction="ltr">+</text></g><g transform="translate(411.2634437705151 316.0975607360433) rotate(0 5 12.5)"><text x="0" y="18" font-family="Virgil, Segoe UI Emoji" font-size="20px" fill="#000000" text-anchor="start" style="white-space: pre;" direction="ltr">-</text></g><g transform="translate(305.99898554960737 370.4714405679449) rotate(0 53.5 12.5)"><text x="0" y="18" font-family="Virgil, Segoe UI Emoji" font-size="20px" fill="#000000" text-anchor="start" style="white-space: pre;" direction="ltr">Color mode</text></g><g stroke-linecap="round" transform="translate(23.156639632844872 505.59571313559036) rotate(0 31.5 31.5)"><path d="M-0.03 -0.83 C18.29 -1.05, 39.5 -1.86, 62.8 0.2 M0.35 -0.6 C20.31 -1.01, 39.28 -1.18, 62.43 -0.2 M61.18 -0.78 C62.77 15.25, 62.77 35.74, 61.04 62.03 M63.88 -0.71 C63.72 14.98, 61.92 30.93, 62.59 62.88 M61.96 62.24 C42.64 61.5, 20.74 61.63, 0 64.62 M62.66 62.71 C43.1 64.11, 22.45 62.58, 0.18 62.52 M0.62 61.04 C1.25 41.85, -0.21 21.07, 0.06 1.97 M0.82 63.15 C-0.5 40.85, -0.84 20.31, -0.83 0.74" stroke="#000000" stroke-width="1" fill="none"></path></g><g transform="translate(36.65663963284487 524.5957131355904) rotate(0 18 12.5)"><text x="18" y="18" font-family="Virgil, Segoe UI Emoji" font-size="20px" fill="#000000" text-anchor="middle" style="white-space: pre;" direction="ltr">Esc</text></g><g transform="translate(100.03646144306003 524.7743174399782) rotate(0 21.5 12.5)"><text x="0" y="18" font-family="Virgil, Segoe UI Emoji" font-size="20px" fill="#000000" text-anchor="start" style="white-space: pre;" direction="ltr">Quit</text></g><g stroke-linecap="round" transform="translate(174.59442729623606 505.5957131355906) rotate(0 31.5 31.5)"><path d="M-1.64 -1.19 C16.95 1.61, 35.47 0.41, 61.84 -1.08 M0.44 -0.93 C12.69 -0.59, 26.76 0.58, 63.33 -0.27 M64.53 1.33 C61.53 23.33, 64.74 46.47, 61.01 62.32 M62.1 0.13 C64.04 22.51, 64.29 46.3, 63.08 63.67 M64.59 62.76 C38.56 63.93, 15.15 61.37, -1.46 62.34 M62.32 63.47 C46.52 64.11, 32.09 63.94, -0.21 63.07 M-0.94 62.95 C0.04 40.3, -2.4 14.09, 1.54 -0.48 M-0.99 62.16 C-0.29 45.43, 1.03 25.19, 0.95 -0.18" stroke="#000000" stroke-width="1" fill="none"></path></g><g transform="translate(198.59442729623606 524.5957131355906) rotate(0 7.5 12.5)"><text x="7.5" y="18" font-family="Virgil, Segoe UI Emoji" font-size="20px" fill="#000000" text-anchor="middle" style="white-space: pre;" direction="ltr">P</text></g><g transform="translate(251.47424910645123 524.7743174399782) rotate(0 68 12.5)"><text x="0" y="18" font-family="Virgil, Segoe UI Emoji" font-size="20px" fill="#000000" text-anchor="start" style="white-space: pre;" direction="ltr">Open settings</text></g></svg>